<?xml version="1.0" encoding="UTF-8" standalone="no"?>
<!DOCTYPE svg PUBLIC "-//W3C//DTD SVG 1.1//EN" "http://www.w3.org/Graphics/SVG/1.1/DTD/svg11.dtd">
<!-- Generated by Microsoft Visio, SVG Export Confidential Containers Architecture.svg Page-1 -->
<svg xmlns="http://www.w3.org/2000/svg" xmlns:xlink="http://www.w3.org/1999/xlink" xmlns:ev="http://www.w3.org/2001/xml-events"
		xmlns:v="http://schemas.microsoft.com/visio/2003/SVGExtensions/" width="8.26772in" height="11.6929in"
		viewBox="0 0 595.276 841.89" xml:space="preserve" color-interpolation-filters="sRGB" class="st16">
	<v:documentProperties v:langID="2057" v:metric="true" v:viewMarkup="false">
		<v:userDefs>
			<v:ud v:nameU="msvNoAutoConnect" v:val="VT0(1):26"/>
		</v:userDefs>
	</v:documentProperties>

	<style type="text/css">
	<![CDATA[
		.st1 {fill:#ebf1df;stroke:#50632a;stroke-dasharray:5.25,3.75;stroke-linecap:round;stroke-linejoin:round;stroke-width:0.75}
		.st2 {fill:#000000;font-family:Calibri;font-size:1.00001em}
		.st3 {fill:none;stroke:#000000;stroke-dasharray:5.25,3.75,0,3.75;stroke-linecap:round;stroke-linejoin:round;stroke-width:0.75}
		.st4 {fill:#9dbb61;stroke:#000000;stroke-linecap:round;stroke-linejoin:round;stroke-width:0.75}
		.st5 {fill:none;stroke:#000000;stroke-dasharray:5.25,3.75;stroke-linecap:round;stroke-linejoin:round;stroke-width:0.75}
		.st6 {stroke:#000000;stroke-linecap:round;stroke-linejoin:round;stroke-width:0.24}
		.st7 {fill:none;stroke:none;stroke-linecap:round;stroke-linejoin:round;stroke-width:0.75}
		.st8 {font-size:1em}
		.st9 {fill:#92cddc;stroke:#000000;stroke-linecap:round;stroke-linejoin:round;stroke-width:0.75}
		.st10 {marker-end:url(#mrkr1-39);marker-start:url(#mrkr1-37);stroke:#000000;stroke-linecap:round;stroke-linejoin:round;stroke-width:1}
		.st11 {fill:#000000;fill-opacity:1;stroke:#000000;stroke-opacity:1;stroke-width:0.28409090909091}
		.st12 {fill:#fff2cc;stroke:#000000;stroke-dasharray:11.25,6.75;stroke-linecap:round;stroke-linejoin:round;stroke-width:0.75}
		.st13 {fill:#fee599;stroke:#000000;stroke-linecap:round;stroke-linejoin:round;stroke-width:0.75}
		.st14 {fill:#000000;font-family:Calibri;font-size:0.666664em}
		.st15 {fill:#ccc2d9;stroke:#000000;stroke-linecap:round;stroke-linejoin:round;stroke-width:0.75}
		.st16 {fill:none;fill-rule:evenodd;font-size:12px;overflow:visible;stroke-linecap:square;stroke-miterlimit:3}
	]]>
	</style>

	<defs id="Markers">
		<g id="lend1">
			<path d="M 1 -1 L 0 0 L 1 1 " style="stroke-linecap:round;stroke-linejoin:round;fill:none"/>
		</g>
		<marker id="mrkr1-37" class="st11" v:arrowType="1" v:arrowSize="2" orient="auto" markerUnits="strokeWidth"
				overflow="visible">
			<use xlink:href="#lend1" transform="scale(3.52) "/>
		</marker>
		<marker id="mrkr1-39" class="st11" v:arrowType="1" v:arrowSize="2" orient="auto" markerUnits="strokeWidth"
				overflow="visible">
			<use xlink:href="#lend1" transform="scale(-3.52,-3.52) "/>
		</marker>
	</defs>
	<g v:mID="0" v:index="1" v:groupContext="foregroundPage">
		<title>Page-1</title>
		<v:pageProperties v:drawingScale="0.0393701" v:pageScale="0.0393701" v:drawingUnits="24" v:shadowOffsetX="8.50394"
				v:shadowOffsetY="-8.50394"/>
		<g id="shape54-1" v:mID="54" v:groupContext="shape" transform="translate(28.3465,-328.819)">
			<title>Sheet.54</title>
			<desc>Enclave</desc>
			<v:textBlock v:margins="rect(4,4,4,4)" v:tabSpace="42.5197"/>
			<v:textRect cx="274.465" cy="829.826" width="548.93" height="38.5099"/>
			<path d="M0 841.89 L548.93 841.89 L548.93 453.54 L0 453.54 L0 841.89 Z" class="st1"/>
			<text x="4" y="833.43" class="st2" v:langID="2057"><v:paragraph/><v:tabList/>Enclave</text>		</g>
		<g id="shape62-4" v:mID="62" v:groupContext="shape" transform="translate(39.189,-357.165)">
			<title>Sheet.62</title>
			<desc>Enclave Linux port</desc>
			<v:textBlock v:margins="rect(4,4,4,4)" v:tabSpace="42.5197"/>
			<v:textRect cx="261.283" cy="833.321" width="527.25" height="262.772"/>
			<path d="M0 841.89 L527.24 841.89 L527.24 579.12 L0 579.12 L0 841.89 Z" class="st3"/>
			<text x="1.66" y="836.92" class="st2" v:langID="2057"><v:paragraph/><v:tabList/>Enclave Linux port</text>		</g>
		<g id="shape1-7" v:mID="1" v:groupContext="shape" transform="translate(141.732,-651.969)">
			<title>Sheet.1</title>
			<desc>Unmodified application</desc>
			<v:textBlock v:margins="rect(4,4,4,4)" v:tabSpace="42.5197"/>
			<v:textRect cx="77.185" cy="827.717" width="154.38" height="28.3465"/>
			<rect x="0" y="813.543" width="154.37" height="28.3465" class="st4"/>
			<text x="19.95" y="831.32" class="st2" v:langID="2057"><v:paragraph v:horizAlign="1"/><v:tabList/>Unmodified application</text>		</g>
		<g id="shape2-10" v:mID="2" v:groupContext="shape" transform="translate(306.142,-651.969)">
			<title>Sheet.2</title>
			<desc>Unmodified library</desc>
			<v:textBlock v:margins="rect(4,4,4,4)" v:tabSpace="42.5197"/>
			<v:textRect cx="58.7599" cy="827.717" width="117.52" height="28.3465"/>
			<rect x="0" y="813.543" width="117.52" height="28.3465" class="st4"/>
			<text x="12.89" y="831.32" class="st2" v:langID="2057"><v:paragraph v:horizAlign="1"/><v:tabList/>Unmodified library</text>		</g>
		<g id="shape3-13" v:mID="3" v:groupContext="shape" transform="translate(433.701,-651.969)">
			<title>Sheet.3</title>
			<desc>Unmodified library...</desc>
			<v:textBlock v:margins="rect(4,4,4,4)" v:tabSpace="42.5197"/>
			<v:textRect cx="58.7599" cy="827.717" width="117.52" height="28.3465"/>
			<rect x="0" y="813.543" width="117.52" height="28.3465" class="st4"/>
			<text x="8.35" y="831.32" class="st2" v:langID="2057"><v:paragraph v:horizAlign="1"/><v:tabList/>Unmodified library...</text>		</g>
		<g id="shape4-16" v:mID="4" v:groupContext="shape" transform="translate(127.559,-637.795)">
			<title>Sheet.4</title>
			<desc>Unmodified application</desc>
			<v:textBlock v:margins="rect(4,4,4,4)" v:tabSpace="42.5197"/>
			<v:textRect cx="219.685" cy="835.591" width="439.38" height="14.6982"/>
			<path d="M0 841.89 L439.37 841.89 L439.37 785.2 L0 785.2 L0 841.89 Z" class="st5"/>
			<text x="4" y="839.19" class="st2" v:langID="2057"><v:paragraph/><v:tabList/>Unmodified application</text>		</g>
		<g id="group14-19" transform="translate(28.3465,-623.622)" v:mID="14" v:groupContext="group">
			<title>Sheet.14</title>
			<g id="shape11-20" v:mID="11" v:groupContext="shape" transform="translate(89.7165,0)">
				<title>Left Parenthesis</title>
				<v:userDefs>
					<v:ud v:nameU="visVersion" v:prompt="" v:val="VT0(15):26"/>
				</v:userDefs>
				<path d="M28.35 841.89 A30.251 11.3441 0 0 1 0 833.39 L0 765.35 A30.251 11.3441 0 0 1 28.35 756.85" class="st6"/>
			</g>
			<g id="shape12-23" v:mID="12" v:groupContext="shape" transform="translate(-7.99361E-15,-33.2889)">
				<title>Sheet.12</title>
				<desc>Loaded from container filesystem</desc>
				<v:textBlock v:margins="rect(4,4,4,4)" v:tabSpace="42.5197"/>
				<v:textRect cx="44.2362" cy="832.659" width="88.48" height="18.4615"/>
				<rect x="0" y="823.428" width="88.4724" height="18.4615" class="st7"/>
				<text x="22.3" y="821.86" class="st2" v:langID="2057"><v:paragraph v:horizAlign="2"/><v:tabList/>Loaded from <tspan
							x="37.78" dy="1.2em" class="st8">container </tspan><tspan x="34.94" dy="1.2em" class="st8">filesystem</tspan></text>			</g>
		</g>
		<g id="shape15-28" v:mID="15" v:groupContext="shape" transform="translate(141.732,-586.772)">
			<title>Sheet.15</title>
			<desc>Modified libc (currently musl)</desc>
			<v:textBlock v:margins="rect(4,4,4,4)" v:tabSpace="42.5197"/>
			<v:textRect cx="205.512" cy="827.717" width="411.03" height="28.3465"/>
			<rect x="0" y="813.543" width="411.024" height="28.3465" class="st9"/>
			<text x="133.41" y="831.32" class="st2" v:langID="2057"><v:paragraph v:horizAlign="1"/><v:tabList/>Modified libc (currently musl)</text>		</g>
		<g id="shape16-31" v:mID="16" v:groupContext="shape" transform="translate(1097.01,189.921) rotate(90)">
			<title>Sheet.16</title>
			<path d="M0 841.89 L36.85 841.89" class="st10"/>
		</g>
		<g id="shape17-40" v:mID="17" v:groupContext="shape" transform="translate(1210.39,189.921) rotate(90)">
			<title>Sheet.17</title>
			<path d="M0 841.89 L36.85 841.89" class="st10"/>
		</g>
		<g id="shape18-47" v:mID="18" v:groupContext="shape" transform="translate(1337.95,189.921) rotate(90)">
			<title>Sheet.18</title>
			<path d="M0 841.89 L36.85 841.89" class="st10"/>
		</g>
		<g id="group20-54" transform="translate(28.3465,-439.37)" v:mID="20" v:groupContext="group">
			<title>Sheet.20</title>
			<g id="shape21-55" v:mID="21" v:groupContext="shape" transform="translate(89.7165,0)">
				<title>Left Parenthesis</title>
				<v:userDefs>
					<v:ud v:nameU="visVersion" v:prompt="" v:val="VT0(15):26"/>
				</v:userDefs>
				<path d="M28.35 841.89 A30.251 17.0162 0 0 1 0 829.13 L0 727.09 A30.251 17.0162 0 0 1 28.35 714.33" class="st6"/>
			</g>
			<g id="shape22-58" v:mID="22" v:groupContext="shape" transform="translate(-7.99361E-15,-49.9334)">
				<title>Sheet.22</title>
				<desc>Linux Kernel Library</desc>
				<v:textBlock v:margins="rect(4,4,4,4)" v:tabSpace="42.5197"/>
				<v:textRect cx="44.2362" cy="828.044" width="88.48" height="27.6923"/>
				<rect x="0" y="814.197" width="88.4724" height="27.6923" class="st7"/>
				<text x="24.74" y="824.44" class="st2" v:langID="2057"><v:paragraph v:horizAlign="2"/><v:tabList/>Linux Kernel <tspan
							x="50.82" dy="1.2em" class="st8">Library</tspan></text>			</g>
		</g>
		<g id="shape23-62" v:mID="23" v:groupContext="shape" transform="translate(141.732,-538.583)">
			<title>Sheet.23</title>
			<desc>System call layer (implemented as function calls)</desc>
			<v:textBlock v:margins="rect(4,4,4,4)" v:tabSpace="42.5197"/>
			<v:textRect cx="205.512" cy="834.803" width="411.03" height="14.1732"/>
			<path d="M0 841.89 L411.02 841.89 L411.02 827.72 L0 827.72 L0 841.89 Z" class="st12"/>
			<text x="87.05" y="838.4" class="st2" v:langID="2057"><v:paragraph v:horizAlign="1"/><v:tabList/>System call layer (implemented as function calls)</text>		</g>
		<g id="shape24-65" v:mID="24" v:groupContext="shape" transform="translate(141.732,-515.906)">
			<title>Sheet.24</title>
			<desc>Page Cache</desc>
			<v:textBlock v:margins="rect(4,4,4,4)" v:tabSpace="42.5197"/>
			<v:textRect cx="48.5967" cy="834.803" width="97.2" height="14.1732"/>
			<rect x="0" y="827.717" width="97.1934" height="14.1732" class="st13"/>
			<text x="20.71" y="838.4" class="st2" v:langID="2057"><v:paragraph v:horizAlign="1"/><v:tabList/>Page Cache</text>		</g>
		<g id="shape25-68" v:mID="25" v:groupContext="shape" transform="translate(1097.01,255.118) rotate(90)">
			<title>Sheet.25</title>
			<path d="M0 841.89 L34.02 841.89" class="st10"/>
		</g>
		<g id="shape26-75" v:mID="26" v:groupContext="shape" transform="translate(1210.39,255.118) rotate(90)">
			<title>Sheet.26</title>
			<path d="M0 841.89 L34.02 841.89" class="st10"/>
		</g>
		<g id="shape27-82" v:mID="27" v:groupContext="shape" transform="translate(1337.95,255.118) rotate(90)">
			<title>Sheet.27</title>
			<path d="M0 841.89 L34.02 841.89" class="st10"/>
		</g>
		<g id="shape28-89" v:mID="28" v:groupContext="shape" transform="translate(243.508,-515.906)">
			<title>Sheet.28</title>
			<desc>Work Queues</desc>
			<v:textBlock v:margins="rect(4,4,4,4)" v:tabSpace="42.5197"/>
			<v:textRect cx="48.5967" cy="834.803" width="97.2" height="14.1732"/>
			<rect x="0" y="827.717" width="97.1934" height="14.1732" class="st13"/>
			<text x="15.26" y="838.4" class="st2" v:langID="2057"><v:paragraph v:horizAlign="1"/><v:tabList/>Work Queues</text>		</g>
		<g id="shape29-92" v:mID="29" v:groupContext="shape" transform="translate(141.732,-489.685)">
			<title>Sheet.29</title>
			<desc>Crypto</desc>
			<v:textBlock v:margins="rect(4,4,4,4)" v:tabSpace="42.5197"/>
			<v:textRect cx="48.5967" cy="834.803" width="97.2" height="14.1732"/>
			<rect x="0" y="827.717" width="97.1934" height="14.1732" class="st13"/>
			<text x="32.26" y="838.4" class="st2" v:langID="2057"><v:paragraph v:horizAlign="1"/><v:tabList/>Crypto</text>		</g>
		<g id="shape30-95" v:mID="30" v:groupContext="shape" transform="translate(243.508,-489.685)">
			<title>Sheet.30</title>
			<desc>Other subsystems</desc>
			<v:textBlock v:margins="rect(4,4,4,4)" v:tabSpace="42.5197"/>
			<v:textRect cx="48.5967" cy="834.803" width="97.2" height="14.1732"/>
			<rect x="0" y="827.717" width="97.1934" height="14.1732" class="st13"/>
			<text x="4.83" y="838.4" class="st2" v:langID="2057"><v:paragraph v:horizAlign="1"/><v:tabList/>Other subsystems</text>		</g>
		<g id="shape32-98" v:mID="32" v:groupContext="shape" transform="translate(354.331,-514.488)">
			<title>Sheet.32</title>
			<desc>Network stack</desc>
			<v:textBlock v:margins="rect(4,4,4,4)" v:tabSpace="42.5197"/>
			<v:textRect cx="48.5967" cy="834.803" width="97.2" height="14.1732"/>
			<rect x="0" y="827.717" width="97.1934" height="14.1732" class="st13"/>
			<text x="13.6" y="838.4" class="st2" v:langID="2057"><v:paragraph v:horizAlign="1"/><v:tabList/>Network stack</text>		</g>
		<g id="shape33-101" v:mID="33" v:groupContext="shape" transform="translate(456.106,-514.488)">
			<title>Sheet.33</title>
			<desc>Filesystem stack</desc>
			<v:textBlock v:margins="rect(4,4,4,4)" v:tabSpace="42.5197"/>
			<v:textRect cx="48.5967" cy="834.803" width="97.2" height="14.1732"/>
			<rect x="0" y="827.717" width="97.1934" height="14.1732" class="st13"/>
			<text x="9.05" y="838.4" class="st2" v:langID="2057"><v:paragraph v:horizAlign="1"/><v:tabList/>Filesystem stack</text>		</g>
		<g id="shape35-104" v:mID="35" v:groupContext="shape" transform="translate(354.331,-488.268)">
			<title>Sheet.35</title>
			<desc>Wireguard</desc>
			<v:textBlock v:margins="rect(4,4,4,4)" v:tabSpace="42.5197"/>
			<v:textRect cx="48.5967" cy="834.803" width="97.2" height="14.1732"/>
			<rect x="0" y="827.717" width="97.1934" height="14.1732" class="st13"/>
			<text x="22.71" y="838.4" class="st2" v:langID="2057"><v:paragraph v:horizAlign="1"/><v:tabList/>Wireguard</text>		</g>
		<g id="shape36-107" v:mID="36" v:groupContext="shape" transform="translate(456.106,-488.268)">
			<title>Sheet.36</title>
			<desc>Device mapper</desc>
			<v:textBlock v:margins="rect(4,4,4,4)" v:tabSpace="42.5197"/>
			<v:textRect cx="48.5967" cy="834.803" width="97.2" height="14.1732"/>
			<rect x="0" y="827.717" width="97.1934" height="14.1732" class="st13"/>
			<text x="11.91" y="838.4" class="st2" v:langID="2057"><v:paragraph v:horizAlign="1"/><v:tabList/>Device mapper</text>		</g>
		<g id="shape37-110" v:mID="37" v:groupContext="shape" transform="translate(351.496,-484.724)">
			<title>Sheet.37</title>
			<desc>Encryption and integrity protection</desc>
			<v:textBlock v:margins="rect(4,4,4,4)" v:tabSpace="42.5197"/>
			<v:textRect cx="102.047" cy="819.685" width="204.1" height="6.61418"/>
			<path d="M0 841.89 L204.09 841.89 L204.09 816.38 L0 816.38 L0 841.89 Z" class="st5"/>
			<text x="4" y="822.09" class="st14" v:langID="2057"><v:paragraph/><v:tabList/>Encryption and integrity protection</text>		</g>
		<g id="shape39-113" v:mID="39" v:groupContext="shape" transform="translate(470.132,-446.457)">
			<title>Sheet.39</title>
			<desc>Block driver</desc>
			<v:textBlock v:margins="rect(4,4,4,4)" v:tabSpace="42.5197"/>
			<v:textRect cx="41.3119" cy="834.803" width="82.63" height="14.1732"/>
			<rect x="0" y="827.717" width="82.6238" height="14.1732" class="st13"/>
			<text x="12.48" y="838.4" class="st2" v:langID="2057"><v:paragraph v:horizAlign="1"/><v:tabList/>Block driver</text>		</g>
		<g id="shape40-116" v:mID="40" v:groupContext="shape" transform="translate(383.885,-446.457)">
			<title>Sheet.40</title>
			<desc>Network driver</desc>
			<v:textBlock v:margins="rect(4,4,4,4)" v:tabSpace="42.5197"/>
			<v:textRect cx="41.3119" cy="834.803" width="82.63" height="14.1732"/>
			<rect x="0" y="827.717" width="82.6238" height="14.1732" class="st13"/>
			<text x="4.41" y="838.4" class="st2" v:langID="2057"><v:paragraph v:horizAlign="1"/><v:tabList/>Network driver</text>		</g>
		<g id="shape41-119" v:mID="41" v:groupContext="shape" transform="translate(297.638,-446.457)">
			<title>Sheet.41</title>
			<desc>Console driver</desc>
			<v:textBlock v:margins="rect(4,4,4,4)" v:tabSpace="42.5197"/>
			<v:textRect cx="41.3119" cy="834.803" width="82.63" height="14.1732"/>
			<rect x="0" y="827.717" width="82.6238" height="14.1732" class="st13"/>
			<text x="6.16" y="838.4" class="st2" v:langID="2057"><v:paragraph v:horizAlign="1"/><v:tabList/>Console driver</text>		</g>
		<g id="shape42-122" v:mID="42" v:groupContext="shape" transform="translate(1247.24,353.622) rotate(90)">
			<title>Sheet.42</title>
			<path d="M0 841.89 L27.64 841.89" class="st10"/>
		</g>
		<g id="shape43-129" v:mID="43" v:groupContext="shape" transform="translate(1343.62,353.622) rotate(90)">
			<title>Sheet.43</title>
			<path d="M0 841.89 L27.64 841.89" class="st10"/>
		</g>
		<g id="shape44-136" v:mID="44" v:groupContext="shape" transform="translate(1167.87,352.205) rotate(90)">
			<title>Sheet.44</title>
			<path d="M0 841.89 L29.06 841.89" class="st10"/>
		</g>
		<g id="shape46-143" v:mID="46" v:groupContext="shape" transform="translate(141.732,-446.457)">
			<title>Sheet.46</title>
			<desc>LKL host interface</desc>
			<v:textBlock v:margins="rect(4,4,4,4)" v:tabSpace="42.5197"/>
			<v:textRect cx="74.4094" cy="834.803" width="148.82" height="14.1732"/>
			<path d="M0 841.89 L148.82 841.89 L148.82 827.72 L0 827.72 L0 841.89 Z" class="st12"/>
			<text x="31.02" y="838.4" class="st2" v:langID="2057"><v:paragraph v:horizAlign="1"/><v:tabList/>LKL host interface</text>		</g>
		<g id="shape47-146" v:mID="47" v:groupContext="shape" transform="translate(141.732,-410.315)">
			<title>Sheet.47</title>
			<desc>Memory</desc>
			<v:textBlock v:margins="rect(4,4,4,4)" v:tabSpace="42.5197"/>
			<v:textRect cx="42.0945" cy="834.803" width="84.19" height="14.1732"/>
			<rect x="0" y="827.717" width="84.189" height="14.1732" class="st15"/>
			<text x="21.21" y="838.4" class="st2" v:langID="2057"><v:paragraph v:horizAlign="1"/><v:tabList/>Memory</text>		</g>
		<g id="shape48-149" v:mID="48" v:groupContext="shape" transform="translate(229.606,-410.315)">
			<title>Sheet.48</title>
			<desc>Threading</desc>
			<v:textBlock v:margins="rect(4,4,4,4)" v:tabSpace="42.5197"/>
			<v:textRect cx="42.0945" cy="834.803" width="84.19" height="14.1732"/>
			<rect x="0" y="827.717" width="84.189" height="14.1732" class="st15"/>
			<text x="17.56" y="838.4" class="st2" v:langID="2057"><v:paragraph v:horizAlign="1"/><v:tabList/>Threading</text>		</g>
		<g id="shape49-152" v:mID="49" v:groupContext="shape" transform="translate(141.732,-389.764)">
			<title>Sheet.49</title>
			<desc>Signal handling</desc>
			<v:textBlock v:margins="rect(4,4,4,4)" v:tabSpace="42.5197"/>
			<v:textRect cx="42.0945" cy="834.803" width="84.19" height="14.1732"/>
			<rect x="0" y="827.717" width="84.189" height="14.1732" class="st15"/>
			<text x="5.31" y="838.4" class="st2" v:langID="2057"><v:paragraph v:horizAlign="1"/><v:tabList/>Signal handling</text>		</g>
		<g id="shape50-155" v:mID="50" v:groupContext="shape" transform="translate(229.606,-389.764)">
			<title>Sheet.50</title>
			<desc>Time</desc>
			<v:textBlock v:margins="rect(4,4,4,4)" v:tabSpace="42.5197"/>
			<v:textRect cx="42.0945" cy="834.803" width="84.19" height="14.1732"/>
			<rect x="0" y="827.717" width="84.189" height="14.1732" class="st15"/>
			<text x="30.02" y="838.4" class="st2" v:langID="2057"><v:paragraph v:horizAlign="1"/><v:tabList/>Time</text>		</g>
		<g id="group51-158" transform="translate(28.3465,-382.677)" v:mID="51" v:groupContext="group">
			<title>Sheet.51</title>
			<g id="shape52-159" v:mID="52" v:groupContext="shape" transform="translate(89.7165,0)">
				<title>Left Parenthesis</title>
				<v:userDefs>
					<v:ud v:nameU="visVersion" v:prompt="" v:val="VT0(15):26"/>
				</v:userDefs>
				<path d="M28.35 841.89 A30.251 6.6174 0 0 1 0 836.93 L0 797.24 A30.251 6.6174 0 0 1 28.35 792.28" class="st6"/>
			</g>
			<g id="shape53-162" v:mID="53" v:groupContext="shape" transform="translate(-7.99361E-15,-19.4185)">
				<title>Sheet.53</title>
				<desc>Support infrastructure</desc>
				<v:textBlock v:margins="rect(4,4,4,4)" v:tabSpace="42.5197"/>
				<v:textRect cx="44.2362" cy="836.505" width="88.48" height="10.7692"/>
				<rect x="0" y="831.121" width="88.4724" height="10.7692" class="st7"/>
				<text x="45.51" y="832.91" class="st2" v:langID="2057"><v:paragraph v:horizAlign="2"/><v:tabList/>Support <tspan
							x="17.07" dy="1.2em" class="st8">infrastructure</tspan></text>			</g>
		</g>
		<g id="shape59-166" v:mID="59" v:groupContext="shape" transform="translate(1097.01,352.205) rotate(90)">
			<title>Sheet.59</title>
			<path d="M0 841.89 L29.06 841.89" class="st10"/>
		</g>
		<g id="shape60-173" v:mID="60" v:groupContext="shape" transform="translate(1028.98,395.433) rotate(90)">
			<title>Sheet.60</title>
			<path d="M0 841.89 L21.97 841.89" class="st10"/>
		</g>
		<g id="shape61-180" v:mID="61" v:groupContext="shape" transform="translate(1111.18,395.433) rotate(90)">
			<title>Sheet.61</title>
			<path d="M0 841.89 L21.97 841.89" class="st10"/>
		</g>
		<g id="shape68-187" v:mID="68" v:groupContext="shape" transform="translate(39.685,-232.441)">
			<title>Sheet.68</title>
			<desc>Confidential container launcher</desc>
			<v:textBlock v:margins="rect(4,4,4,4)" v:tabSpace="42.5197"/>
			<v:textRect cx="261.283" cy="835.689" width="527.25" height="12.4016"/>
			<path d="M0 841.89 L527.24 841.89 L527.24 762.52 L0 762.52 L0 841.89 Z" class="st3"/>
			<text x="1.66" y="839.29" class="st2" v:langID="2057"><v:paragraph/><v:tabList/>Confidential container launcher</text>		</g>
		<g id="shape70-190" v:mID="70" v:groupContext="shape" transform="translate(71.2913,-257.953)">
			<title>Sheet.70</title>
			<desc>Signal handling</desc>
			<v:textBlock v:margins="rect(4,4,4,4)" v:tabSpace="42.5197"/>
			<v:textRect cx="42.0945" cy="834.803" width="84.19" height="14.1732"/>
			<rect x="0" y="827.717" width="84.189" height="14.1732" class="st15"/>
			<text x="5.31" y="838.4" class="st2" v:langID="2057"><v:paragraph v:horizAlign="1"/><v:tabList/>Signal handling</text>		</g>
		<g id="shape71-193" v:mID="71" v:groupContext="shape" transform="translate(312.973,-245.197)">
			<title>Sheet.71</title>
			<desc>Virtual console device</desc>
			<v:textBlock v:margins="rect(4,4,4,4)" v:tabSpace="42.5197"/>
			<v:textRect cx="40.2861" cy="828.425" width="80.58" height="26.9291"/>
			<rect x="0" y="814.961" width="80.5722" height="26.9291" class="st15"/>
			<text x="24" y="824.83" class="st2" v:langID="2057"><v:paragraph v:horizAlign="1"/><v:tabList/>Virtual <tspan x="4.46"
						dy="1.2em" class="st8">console device</tspan></text>		</g>
		<g id="shape72-197" v:mID="72" v:groupContext="shape" transform="translate(160.664,-257.953)">
			<title>Sheet.72</title>
			<desc>Page permissions</desc>
			<v:textBlock v:margins="rect(4,4,4,4)" v:tabSpace="42.5197"/>
			<v:textRect cx="48.5967" cy="834.803" width="97.2" height="14.1732"/>
			<rect x="0" y="827.717" width="97.1934" height="14.1732" class="st15"/>
			<text x="6.32" y="838.4" class="st2" v:langID="2057"><v:paragraph v:horizAlign="1"/><v:tabList/>Page permissions</text>		</g>
		<g id="shape73-200" v:mID="73" v:groupContext="shape" transform="translate(294.803,-432.283)">
			<title>Sheet.73</title>
			<desc>Standard Linux VirtIO drivers</desc>
			<v:textBlock v:margins="rect(4,4,4,4)" v:tabSpace="42.5197"/>
			<v:textRect cx="128.687" cy="834.961" width="257.38" height="8.81891"/>
			<path d="M0 841.89 L261.35 841.89 L261.35 807.87 L0 807.87 L0 841.89 Z" class="st5"/>
			<text x="4" y="837.36" class="st14" v:langID="2057"><v:paragraph/><v:tabList/>Standard Linux VirtIO drivers</text>		</g>
		<g id="shape78-203" v:mID="78" v:groupContext="shape" transform="translate(396.83,-245.197)">
			<title>Sheet.78</title>
			<desc>Virtual net device</desc>
			<v:textBlock v:margins="rect(4,4,4,4)" v:tabSpace="42.5197"/>
			<v:textRect cx="40.2861" cy="828.425" width="80.58" height="26.9291"/>
			<rect x="0" y="814.961" width="80.5722" height="26.9291" class="st15"/>
			<text x="14.5" y="824.83" class="st2" v:langID="2057"><v:paragraph v:horizAlign="1"/><v:tabList/>Virtual net <tspan
						x="24.54" dy="1.2em" class="st8">device</tspan></text>		</g>
		<g id="shape79-207" v:mID="79" v:groupContext="shape" transform="translate(480.688,-245.197)">
			<title>Sheet.79</title>
			<desc>Virtual block device</desc>
			<v:textBlock v:margins="rect(4,4,4,4)" v:tabSpace="42.5197"/>
			<v:textRect cx="40.2861" cy="828.425" width="80.58" height="26.9291"/>
			<rect x="0" y="814.961" width="80.5722" height="26.9291" class="st15"/>
			<text x="9.69" y="824.83" class="st2" v:langID="2057"><v:paragraph v:horizAlign="1"/><v:tabList/>Virtual block <tspan
						x="24.54" dy="1.2em" class="st8">device</tspan></text>		</g>
		<g id="shape80-211" v:mID="80" v:groupContext="shape" transform="translate(1352.13,395.433) rotate(90)">
			<title>Sheet.80</title>
			<path d="M0 841.89 L174.33 841.89" class="st10"/>
		</g>
		<g id="shape81-218" v:mID="81" v:groupContext="shape" transform="translate(1267.09,395.433) rotate(90)">
			<title>Sheet.81</title>
			<path d="M0 841.89 L174.33 841.89" class="st10"/>
		</g>
		<g id="shape82-225" v:mID="82" v:groupContext="shape" transform="translate(1190.02,395.433) rotate(90)">
			<title>Sheet.82</title>
			<path d="M0 841.89 L174.33 841.89" class="st10"/>
		</g>
		<g id="shape83-232" v:mID="83" v:groupContext="shape" transform="translate(312.973,-286.299)">
			<title>Sheet.83</title>
			<desc>Shared memory transport</desc>
			<v:textBlock v:margins="rect(4,4,4,4)" v:tabSpace="42.5197"/>
			<v:textRect cx="124.016" cy="834.803" width="248.04" height="14.1732"/>
			<path d="M0 841.89 L248.03 841.89 L248.03 827.72 L0 827.72 L0 841.89 Z" class="st12"/>
			<text x="60.85" y="838.4" class="st2" v:langID="2057"><v:paragraph v:horizAlign="1"/><v:tabList/>Shared memory transport</text>		</g>
		<g id="shape85-235" v:mID="85" v:groupContext="shape" transform="translate(1119.69,452.126) rotate(90)">
			<title>Sheet.85</title>
			<path d="M0 841.89 L117.64 841.89" class="st10"/>
		</g>
		<g id="shape88-242" v:mID="88" v:groupContext="shape" transform="translate(263.041,-257.953)">
			<title>Sheet.88</title>
			<desc>Sleep</desc>
			<v:textBlock v:margins="rect(4,4,4,4)" v:tabSpace="42.5197"/>
			<v:textRect cx="20.4236" cy="834.803" width="40.85" height="14.1732"/>
			<rect x="0" y="827.717" width="40.8472" height="14.1732" class="st15"/>
			<text x="7.17" y="838.4" class="st2" v:langID="2057"><v:paragraph v:horizAlign="1"/><v:tabList/>Sleep</text>		</g>
		<g id="shape89-245" v:mID="89" v:groupContext="shape" transform="translate(1062.99,431.575) rotate(90)">
			<title>Sheet.89</title>
			<path d="M0 841.89 L138.19 841.89" class="st10"/>
		</g>
		<g id="shape90-252" v:mID="90" v:groupContext="shape" transform="translate(992.309,452.126) rotate(90)">
			<title>Sheet.90</title>
			<path d="M0 841.89 L117.64 841.89" class="st10"/>
		</g>
		<g id="shape87-259" v:mID="87" v:groupContext="shape" transform="translate(68.0315,-286.299)">
			<title>Sheet.87</title>
			<desc>Synchronous calls</desc>
			<v:textBlock v:margins="rect(4,4,4,4)" v:tabSpace="42.5197"/>
			<v:textRect cx="117.39" cy="834.803" width="234.78" height="14.1732"/>
			<path d="M0 841.89 L234.78 841.89 L234.78 827.72 L0 827.72 L0 841.89 Z" class="st12"/>
			<text x="74.14" y="838.4" class="st2" v:langID="2057"><v:paragraph v:horizAlign="1"/><v:tabList/>Synchronous calls</text>		</g>
	</g>
</svg>
